<svg id="グループ_43" data-name="グループ 43" xmlns="http://www.w3.org/2000/svg" width="40.153" height="40.154" viewBox="0 0 40.153 40.154">
  <path id="パス_7" data-name="パス 7" d="M33.19,5H16.962A11.972,11.972,0,0,0,5,16.962V33.19A11.972,11.972,0,0,0,16.962,45.155H33.19A11.973,11.973,0,0,0,45.153,33.19V16.962A11.968,11.968,0,0,0,33.19,5Zm7.925,28.19a7.927,7.927,0,0,1-7.923,7.925H16.962A7.923,7.923,0,0,1,9.039,33.19V16.962a7.922,7.922,0,0,1,7.925-7.923H33.19a7.925,7.925,0,0,1,7.923,7.921Z" transform="translate(-5 -5)" fill="#fff"/>
  <path id="パス_8" data-name="パス 8" d="M20.694,11.4A10.382,10.382,0,1,0,31.076,21.784,10.391,10.391,0,0,0,20.694,11.4Zm0,16.724a6.343,6.343,0,1,1,6.342-6.343,6.343,6.343,0,0,1-6.342,6.343ZM31.1,8.991a2.488,2.488,0,1,1-2.49,2.49A2.381,2.381,0,0,1,31.1,8.991Z" transform="translate(-0.617 -1.706)" fill="#fff"/>
</svg>
