<svg id="グループ_1676" data-name="グループ 1676" xmlns="http://www.w3.org/2000/svg" xmlns:xlink="http://www.w3.org/1999/xlink" width="287.507" height="120.237" viewBox="0 0 287.507 120.237">
  <defs>
    <clipPath id="clip-path">
      <rect id="長方形_113" data-name="長方形 113" width="287.507" height="120.237" fill="#fff"/>
    </clipPath>
  </defs>
  <g id="グループ_1661" data-name="グループ 1661" transform="translate(0 0)" clip-path="url(#clip-path)">
    <path id="パス_99" data-name="パス 99" d="M12.121,52.109c-1.027,0-2.132.073-3.159.146-1.1.076-2.129.145-3.232.145C2.571,52.4,0,51.667,0,48.068c0-5.07,4.555-2.2,5.879-6.394C7.714,35.8,10.068,18.24,10.068,12.586c0-5.952-4.925-2.647-4.925-7.054C5.143.755,9.625.61,13.3.61c6.76,0,14.475-.221,21.671-.367C43.051.095,57.82,1.418,57.82,22.429c0,8.078-2.871,29.679-29.095,29.679ZM25.563,38.958c.076,2.426-.073,4.261,2.571,4.261,8.968,0,10.728-13.59,10.728-22.48,0-5.733-.881-12.049-7.2-12.049-4.48,0-3.819,4.113-4.183,6.833Z" transform="translate(0 0.42)" fill="#fff"/>
    <path id="パス_100" data-name="パス 100" d="M19.858,29.59C19.858,15.558,30.877,5.2,44.834,5.2c9.183,0,16.755,4.922,16.755,14.547,0,14.03-11.022,24.388-24.981,24.388-9.183,0-16.749-4.922-16.749-14.544m18.221-9.625A70.262,70.262,0,0,0,36.607,32.97c0,1.69.439,3.38,2.35,3.38,3.089,0,3.674-4.41,4.116-6.612a80.894,80.894,0,0,0,1.76-13.151c0-1.693-.364-3.6-2.423-3.6-3.083,0-3.819,4.7-4.331,6.978" transform="translate(35.707 9.349)" fill="#fff"/>
    <path id="パス_101" data-name="パス 101" d="M76.61,26.341a17.713,17.713,0,0,0-.442,3.38c0,1.615.806,2.2,2.28,2.2,1.687.076,2.571,0,2.571,1.984,0,5.658-12.272,9.55-16.755,9.55-4.7,0-2.493-6.536-5.065-6.536-1.617,0-7.865,6.83-15.5,6.536-4.116-.146-6.388-2.79-6.539-7.566-.148-4.113,1.547-10.137,2.132-15.208.221-1.911.733-3.6-1.69-3.892-1.469-.148-3.084-.369-3.084-2.278,0-2.941,4.11-5.07,6.318-6.1A29.074,29.074,0,0,1,52.658,5.4c2.793,0,3.749,1.469,3.749,4.186,0,2.868-1.469,9.846-2.132,13.666-.148.957-1.987,8.226,1.175,8.226,2.353,0,4.04-2.935,4.852-4.7C63.31,19.874,61.914,10.618,65.218,7.9c2.059-1.838,7.275-2.571,9.995-2.571,2.278,0,4.261.66,4.261,3.159,0,.954-.294,2.717-.367,3.671Z" transform="translate(62.061 9.584)" fill="#fff"/>
    <path id="パス_102" data-name="パス 102" d="M71.948,10.946c-.218,2.5-.733,5.143-.733,7.714,0,.588.221,1.323.879,1.323,1.4,0,4.558-5.509,10.507-5.509,7.345,0,10.213,6.685,9.844,13-.881,14.547-9.992,26.005-26.52,26.005-6.021,0-13.515-2.2-13.515-9.474,0-3.456,1.1-8.82,1.687-12.345a124.1,124.1,0,0,0,1.838-18.07c0-2.059,0-2.792-2.208-2.938s-3.083-.3-3.083-2.868c0-3.159,2.862-4.186,5.434-5.067C59.09,1.617,65.63,0,68.786,0c4.483,0,3.968,2.132,3.677,6.245ZM68.274,43.2c.148,1.027.294,2.5,1.617,2.5,4.553,0,6.1-14.323,6.024-15.574-.076-1.323-.148-4.113-2.057-4.113-4.189,0-5.806,15.941-5.585,17.191" transform="translate(91.061 0)" fill="#fff"/>
    <path id="パス_103" data-name="パス 103" d="M84.316,39.084c0,.881.073,2.571,1.248,2.571.733,0,1.466-.221,2.208-.221,1.245,0,1.612,1.248,1.612,2.278,0,6.1-11.976,9.329-16.749,9.329-3.968,0-6.391-1.836-5.949-7.124,1.03-11.9,3.3-25.421,4.259-34.016.151-1.175-.148-1.763-1.4-1.763-.585,0-1.172.148-1.757.148-1.472,0-2.28-.663-2.28-2.132,0-3.674,3.377-4.849,6.321-5.8A43.673,43.673,0,0,1,84.022,0c2.574,0,4.186.66,4.186,3.526Z" transform="translate(117.793 0)" fill="#fff"/>
    <path id="パス_104" data-name="パス 104" d="M113.064,13.94c0,8.89-9.916,15.8-18.216,15.8-1.032,0-2.865,0-2.865,1.545,0,2.129,2.644,3.3,4.483,3.3,5.286,0,9.326-4.189,11.676-4.189a3.242,3.242,0,0,1,2.941,3.086c0,3.895-4.922,6.318-7.935,7.714a30.119,30.119,0,0,1-12.709,2.938c-8.962,0-16.749-3.892-16.386-13.739.663-15.28,14.917-25.2,28.289-25.2,5.8,0,10.722,2.275,10.722,8.741M91.835,21.655c0,.881.294,2.057,1.323,2.057,2.054,0,5.658-5.437,5.437-8.962-.076-.954-.515-2.278-1.69-2.278-3.011,0-5.07,6.833-5.07,9.183" transform="translate(133.132 9.349)" fill="#fff"/>
    <path id="パス_105" data-name="パス 105" d="M41.415,20.039a35.213,35.213,0,0,0,6.17-.442c1.254-.221,1.838-.439,2.129-.439,4.41,0,6.981,7.418,6.981,10.946,0,3.235-1.4,6.094-4.995,6.094-5.585,0-2.862-7.709-10.434-7.709-6.612,0-6.833.876-7.2,3.6a68.544,68.544,0,0,0-1.175,8.45c0,.954.733.884,1.539.884,4.922,0,1.838-6.69,7.275-6.69,3.747,0,4.558,5,4.558,7.865,0,4.11-.59,14.981-6.542,14.981-5.434,0-1.323-7.709-5.434-7.709-1.4,0-2.792-.221-2.792,11.022,0,4.622,5.065,2.2,5.065,5.949,0,5.585-11.013,5.286-14.763,5.286-11.388,0-15.208-1.027-15.208-5.21,0-4.116,3.895-1.987,5.364-5.585,2.059-5.143,4.553-23.216,4.553-28.949,0-6.388-4.922-2.644-4.922-7.784,0-4.043,4.337-4.849,7.566-4.849,5.954,0,8.526.294,11.17.294Z" transform="translate(11.855 34.448)" fill="#fff"/>
    <path id="パス_106" data-name="パス 106" d="M62.742,27.228c-.291,4.4-1.617,11.016-2.2,18.951-.073,1.181-.369,3.531.073,4.7.291.884.811.811,1.617.884,1.1.148,1.836.66,1.836,1.838,0,4.774-10.728,9.032-14.766,9.032-6.539,0-3.377-6.243-5.731-6.243C41.661,56.392,38.057,63,30.491,63c-6.76,0-9.553-5.954-9.253-11.9.585-13.221,8.811-25.561,20.127-26.587,5.143-.52,7.2,3.008,9.332,3.008a7.906,7.906,0,0,0,2.792-1.175,13.779,13.779,0,0,1,6.24-1.911c2.059,0,3.162.736,3.014,2.792M47.831,35.015c0-.954-.294-2.423-1.469-2.35-3.895.291-8.817,11.24-8.744,15.944,0,1.1.218,3.011,1.693,2.862,3.889-.291,8.663-12.784,8.52-16.456" transform="translate(38.149 43.937)" fill="#fff"/>
    <path id="パス_107" data-name="パス 107" d="M69.307,49.575c1.914,0,2.868,2.423,2.868,4.04,0,2.644-3.3,4.7-5.364,5.8a28.055,28.055,0,0,1-14.175,3.819c-9.041,0-16.022-4.038-16.022-13.884,0-13.59,12.272-25.049,25.639-25.049,5.954,0,12.124,2.935,12.345,9.768.148,4.625-3.968,9.038-8.6,9.038-2.423,0-5.437-1.62-5.437-4.413,0-1.978,1.251-3.671,1.251-4.922a1.318,1.318,0,0,0-1.323-1.321c-4.553-.073-5.876,11.9-5.876,15.21,0,2.35.512,6.019,3.674,6.019,2.717,0,5.14-1.245,7.418-2.571,1.1-.66,2.278-1.539,3.6-1.539" transform="translate(65.835 43.703)" fill="#fff"/>
    <path id="パス_108" data-name="パス 108" d="M69.748,52.679c-.733,3.235.221,5.221,2.059,5.221,1.76,0,3.083-1.4,4.186-1.4,1.542,0,1.984,1.4,1.984,2.641,0,5.731-13.957,10.431-18.218,10.431-4.41,0-7.351-2.129-7.351-6.833a43.778,43.778,0,0,1,.739-6.976l2.2-12.933c.515-2.86.294-3.229-2.641-3.229-1.766,0-2.723-.515-2.723-2.5,0-3.156,1.545-4.922,4.631-5.216,2.35-.291,2.571-1.027,3.6-4.407.663-2.2,1.469-4.334,3.456-5.288,2.571-1.251,6.318-1.617,9.181-1.617,1.838,0,2.792.809,2.792,2.72-.148,1.469-.66,5.652-.66,6.833,0,2.2,2.423,1.469,4.628,1.469.957,0,1.833.221,1.833,1.323a22.442,22.442,0,0,1-.364,3.156c-.221,1.617-.221,3.159-2.208,3.159-5.065,0-5.065-.221-6.17,6.17Z" transform="translate(89.878 36.998)" fill="#fff"/>
    <path id="パス_109" data-name="パス 109" d="M59.651,48.693c0-14.032,11.019-24.388,24.976-24.388,9.183,0,16.755,4.925,16.755,14.547,0,14.03-11.022,24.388-24.981,24.388-9.183,0-16.749-4.925-16.749-14.547m18.221-9.62a70.179,70.179,0,0,0-1.472,13c0,1.687.439,3.377,2.35,3.377,3.089,0,3.674-4.41,4.116-6.612a80.9,80.9,0,0,0,1.76-13.151c0-1.693-.364-3.6-2.423-3.6-3.083,0-3.819,4.7-4.331,6.987" transform="translate(107.258 43.703)" fill="#fff"/>
    <path id="パス_110" data-name="パス 110" d="M95.068,52.566c.442,7.121-2.644,9.911-12.709,10.353-2.72.148-5.658-.585-5.658-3.889,0-4.41,2.938-13.593,3.086-20.426.073-1.987-.148-2.571-2.129-2.571-2.28,0-3.456-.585-3.456-3.232,0-3.965,5.949-5.143,8.741-6.536a15.3,15.3,0,0,1,6.76-1.908c4.48,0,2.5,6.976,4.852,6.976,2.129,0,1.908-7.054,8.741-7.054,4.774,0,8.005,4.119,8.005,8.741,0,4.483-2.2,8.82-7.2,8.82-2.644,0-3.671-1.027-4.925-3.156-.218-.442-.876-1.766-1.466-1.766-1.027,0-1.469,3.083-1.542,3.747Z" transform="translate(133.424 43.653)" fill="#fff"/>
    <path id="パス_111" data-name="パス 111" d="M100.094,76.3c-6.539,0-13.151-3.6-13.151-10.8,0-4.48,3.156-7.351,7.493-7.351,3.528,0,6.243,1.987,6.243,5.661,0,1.248-.291,2.5-.291,3.744,0,.811.291,1.469,1.175,1.469,2.35,0,3.526-3.523,3.453-5.361-.148-5.434-7.051-24.612-9.844-24.612-1.105,0-2.644,2.5-4.262,2.5-1.908,0-3.526-2.426-3.383-4.186.442-4.7,12.787-12.93,17.046-12.93,4.113,0,5.509,3.526,6.906,6.755,1.987,4.7,5.437,17.636,7.272,18.078,1.987.439,2.865-7.13,2.865-8.6,0-5.143-3.377-6.466-3.377-10.21,0-3.453,3.084-5.585,6.318-5.585,5.806,0,6.612,5.143,6.612,9.768.291,15.871-12.119,41.655-31.076,41.655" transform="translate(156.332 43.939)" fill="#fff"/>
  </g>
</svg>
